<?xml version="1.0"?>
<svg xmlns="http://www.w3.org/2000/svg" xmlns:xlink="http://www.w3.org/1999/xlink" version="1.1" id="Capa_1" x="0px" y="0px" viewBox="0 0 512.001 512.001" style="enable-background:new 0 0 512.001 512.001;" xml:space="preserve" width="512px" height="512px"><g><g>
	<g>
		<path d="M202.577,356.492c-22.505-22.505-34.899-52.428-34.899-84.254c0-23.533,6.783-46.02,19.412-65.242h-14.503V0h-37.527    v206.995H105.06V33.763H67.533v249.261H37.535V145.966H0.006v211.432l90.035,106.607v47.996h183.833v-44.827l9.473-29.911    L202.577,356.492z" data-original="#000000" class="active-path" data-old_color="#f54e24" fill="#f54e24"/>
	</g>
</g><g>
	<g>
		<g>
			<polygon points="270.112,154.249 270.112,154.249 270.111,154.249    " data-original="#000000" class="active-path" data-old_color="#f54e24" fill="#f54e24"/>
			<path d="M270.112,67.526v86.723c5.493-0.767,11.076-1.164,16.72-1.164c7.051,0,14.002,0.629,20.807,1.821v-87.38H270.112z" data-original="#000000" class="active-path" data-old_color="#f54e24" fill="#f54e24"/>
		</g>
	</g>
</g><g>
	<g>
		<path d="M202.585,33.763v154.212c10.961-10.958,23.684-19.512,37.526-25.411V33.763H202.585z" data-original="#000000" class="active-path" data-old_color="#f54e24" fill="#f54e24"/>
	</g>
</g><g>
	<g>
		<path d="M485.882,209.195c-17.408-17.408-40.225-26.113-63.042-26.113c-22.817,0-45.634,8.705-63.042,26.113l-4.962,4.962    l-4.962-4.962c-17.408-17.408-40.225-26.113-63.042-26.113c-22.817,0-45.634,8.705-63.042,26.113    c-34.817,34.817-34.817,91.268,0,126.084l131.046,131.047l131.047-131.047C520.699,300.463,520.699,244.014,485.882,209.195z" data-original="#000000" class="active-path" data-old_color="#f54e24" fill="#f54e24"/>
	</g>
</g></g> </svg>
