<?xml version="1.0" encoding="utf-8"?>
<!-- Generator: Adobe Illustrator 22.1.0, SVG Export Plug-In . SVG Version: 6.00 Build 0)  -->
<svg version="1.1" id="Capa_1" xmlns="http://www.w3.org/2000/svg" xmlns:xlink="http://www.w3.org/1999/xlink" x="0px" y="0px"
	 viewBox="0 0 1286 383" style="enable-background:new 0 0 1286 383;" xml:space="preserve">
<style type="text/css">
	.st0{fill:#38D9DB;}
	.st1{fill:#1D1D1B;}
</style>
<g>
	<g>
		<path class="st0" d="M708.8,273.3c0-0.4,0.1-0.8,0.5-1.2c0.4-0.4,0.8-0.7,1.2-0.7c0.3,0,0.7,0.3,1.2,0.7l1.6,1.5
			c0.6,0.5,1.5,1.1,2.7,1.5c1.2,0.5,2.7,0.7,4.3,0.7c2.7,0,4.8-0.6,6.3-1.9c1.4-1.3,2.2-3,2.2-5.4c0-1.6-0.3-2.9-1-4
			c-0.7-1.1-1.6-2-2.7-2.5c-1.1-0.6-2.3-1.2-3.7-1.7l-4.1-1.5c-1.4-0.5-2.6-1.1-3.7-1.7c-1.1-0.7-2-1.7-2.7-2.9
			c-0.7-1.3-1-2.7-1-4.4c0-1.8,0.3-3.4,1.1-4.7c0.8-1.3,1.7-2.3,3-3c1.2-0.6,2.5-1.1,3.8-1.4c1.3-0.3,2.7-0.4,4.1-0.4
			c2.3,0,4.5,0.3,6.6,0.9c2,0.6,3,1.4,3,2.3c0,0.4-0.2,0.8-0.5,1.3c-0.4,0.4-0.8,0.6-1.2,0.6c-0.2,0-0.7-0.2-1.3-0.5
			c-0.6-0.3-1.5-0.6-2.7-0.9c-1.2-0.3-2.5-0.5-3.9-0.5c-2.4,0-4.4,0.4-5.9,1.4c-1.6,0.9-2.4,2.5-2.4,4.7c0,1.5,0.5,2.8,1.4,3.8
			c0.9,1,2.1,1.7,3.5,2.2c1.4,0.4,2.9,1,4.6,1.6c1.7,0.6,3.2,1.3,4.6,2c1.4,0.7,2.6,1.9,3.5,3.4c0.9,1.6,1.4,3.5,1.4,5.8
			c0,3.6-1.1,6.3-3.2,8.1c-2.1,1.8-5.1,2.7-8.8,2.7c-3.3,0-6.1-0.6-8.3-2C709.9,275.7,708.8,274.4,708.8,273.3"/>
		<path class="st0" d="M738.8,267.6v-16.2c0-3.8,1.1-6.7,3.3-8.5c2.2-1.8,5.1-2.7,8.7-2.7c3.6,0,6.5,0.8,8.6,2.5
			c2.1,1.7,3.2,3.8,3.2,6.2c0,0.8-0.1,1.4-0.4,1.7c-0.3,0.3-0.8,0.4-1.5,0.4c-1.1,0-1.8-0.4-1.9-1.3c0-0.5-0.1-1-0.2-1.5
			c-0.1-0.5-0.3-1-0.7-1.6c-0.4-0.6-0.8-1.2-1.3-1.6c-0.5-0.5-1.3-0.8-2.3-1.1c-1-0.3-2.1-0.4-3.4-0.4c-5.5,0-8.2,2.6-8.2,8v16.2
			c0,5.4,2.8,8.1,8.4,8.1c1.6,0,3-0.2,4-0.6c1-0.4,1.8-1,2.3-1.8c0.5-0.8,0.8-1.4,1-2c0.2-0.6,0.3-1.2,0.4-2.1
			c0.1-0.9,0.8-1.4,1.9-1.4c0.7,0,1.2,0.1,1.5,0.5c0.3,0.3,0.4,0.9,0.4,1.7c0,2.5-1.1,4.6-3.2,6.3c-2.2,1.7-5,2.6-8.7,2.6
			c-3.5,0-6.3-0.9-8.5-2.7C739.9,274.3,738.8,271.5,738.8,267.6"/>
		<path class="st0" d="M769,277.2v-35.7c0-0.8,0.6-1.3,1.9-1.3c1.2,0,1.9,0.4,1.9,1.3v15.7h16.5v-15.7c0-0.8,0.6-1.3,1.8-1.3
			c1.3,0,1.9,0.4,1.9,1.3v35.7c0,0.5-0.2,0.8-0.5,1c-0.4,0.2-0.8,0.4-1.3,0.4c-0.5,0-0.9-0.1-1.3-0.4c-0.4-0.3-0.5-0.6-0.5-1v-17
			h-16.5v17c0,0.5-0.2,0.8-0.6,1c-0.4,0.2-0.8,0.4-1.3,0.4c-0.6,0-1-0.1-1.3-0.4C769.2,277.9,769,277.6,769,277.2"/>
		<path class="st0" d="M805,267.6c0,5.4,2.7,8.1,8.1,8.1c5.4,0,8.1-2.7,8.1-8.1v-16.2c0-5.3-2.7-8-8.1-8c-5.4,0-8.1,2.6-8.1,8V267.6
			z M801.2,267.6v-16.2c0-3.9,1.1-6.7,3.2-8.5c2.1-1.8,5-2.7,8.6-2.7c3.6,0,6.5,0.9,8.6,2.7c2.1,1.8,3.2,4.6,3.2,8.5v16.2
			c0,3.9-1.1,6.7-3.2,8.5c-2.2,1.8-5,2.7-8.6,2.7c-3.6,0-6.5-0.9-8.6-2.7C802.3,274.4,801.2,271.5,801.2,267.6"/>
		<path class="st0" d="M836.4,267.6c0,5.4,2.7,8.1,8.1,8.1c5.4,0,8.1-2.7,8.1-8.1v-16.2c0-5.3-2.7-8-8.1-8c-5.4,0-8.1,2.6-8.1,8
			V267.6z M832.7,267.6v-16.2c0-3.9,1-6.7,3.2-8.5c2.2-1.8,5-2.7,8.7-2.7c3.6,0,6.5,0.9,8.6,2.7c2.2,1.8,3.3,4.6,3.3,8.5v16.2
			c0,3.9-1.1,6.7-3.3,8.5c-2.1,1.8-5,2.7-8.6,2.7c-3.6,0-6.5-0.9-8.7-2.7C833.7,274.4,832.7,271.5,832.7,267.6"/>
		<path class="st0" d="M864.6,277.2v-35.7c0-0.8,0.6-1.3,1.9-1.3c1.2,0,1.9,0.4,1.9,1.3v33.9h16.2c0.8,0,1.2,0.5,1.2,1.6
			c0,1.1-0.4,1.6-1.2,1.6h-18.3c-0.4,0-0.9-0.1-1.2-0.4C864.7,277.9,864.6,277.6,864.6,277.2"/>
		<path class="st0" d="M905.7,267.6c0,5.4,2.7,8.1,8.1,8.1c5.4,0,8.1-2.7,8.1-8.1v-16.2c0-5.3-2.7-8-8.1-8c-5.4,0-8.1,2.6-8.1,8
			V267.6z M901.9,267.6v-16.2c0-3.9,1.1-6.7,3.2-8.5c2.1-1.8,5-2.7,8.7-2.7c3.6,0,6.5,0.9,8.6,2.7c2.1,1.8,3.2,4.6,3.2,8.5v16.2
			c0,3.9-1.1,6.7-3.2,8.5c-2.1,1.8-5,2.7-8.6,2.7c-3.6,0-6.5-0.9-8.7-2.7C903,274.4,901.9,271.5,901.9,267.6"/>
		<path class="st0" d="M933.8,277.3v-35.7c0-0.4,0.2-0.7,0.5-1c0.4-0.2,0.7-0.3,1.2-0.3h20.2c0.5,0,0.8,0.1,1,0.4
			c0.3,0.3,0.4,0.7,0.4,1.1c0,0.5-0.1,0.8-0.4,1.2c-0.2,0.4-0.6,0.5-1,0.5h-18.1v14.4h9c0.4,0,0.8,0.2,1,0.4
			c0.2,0.3,0.4,0.7,0.4,1.1c0,1-0.5,1.4-1.4,1.4h-9v16.4c0,0.4-0.2,0.7-0.6,1c-0.4,0.2-0.8,0.3-1.3,0.3
			C934.4,278.5,933.8,278.1,933.8,277.3"/>
		<path class="st0" d="M973.4,277.2v-35.6c0-0.4,0.2-0.7,0.5-1c0.4-0.2,0.8-0.3,1.2-0.3h20.3c1,0,1.5,0.5,1.5,1.5
			c0,0.5-0.1,0.8-0.4,1.2c-0.2,0.3-0.6,0.5-1.1,0.5h-18.2v14.4h8.9c0.5,0,0.9,0.2,1.1,0.4c0.2,0.3,0.4,0.7,0.4,1.1
			c0,1-0.5,1.4-1.4,1.4h-8.9v14.5h18.2c0.4,0,0.8,0.1,1,0.5c0.3,0.3,0.5,0.7,0.5,1.1c0,1.1-0.5,1.6-1.5,1.6h-20.3
			c-0.4,0-0.9-0.1-1.2-0.4C973.5,277.9,973.4,277.6,973.4,277.2"/>
		<path class="st0" d="M1002.3,277.2v-35.6c0-0.9,0.6-1.3,1.9-1.3c1.1,0,2,0.8,3,2.4l15.3,27.9v-29c0-0.8,0.7-1.3,1.9-1.3
			c1.2,0,1.8,0.4,1.8,1.3v35.7c0,0.5-0.2,0.8-0.5,1c-0.4,0.2-0.8,0.4-1.3,0.4c-1,0-1.8-0.7-2.5-2l-15.8-28.4v29c0,0.5-0.2,0.8-0.6,1
			c-0.4,0.2-0.8,0.4-1.3,0.4c-0.5,0-1-0.1-1.4-0.4C1002.5,277.9,1002.3,277.6,1002.3,277.2"/>
		<path class="st0" d="M1034.5,267.6v-16.2c0-3.9,1.1-6.7,3.2-8.5c2.1-1.8,5-2.7,8.6-2.7c3.6,0,6.5,0.8,8.7,2.5
			c2.1,1.7,3.2,3.9,3.2,6.5c0,1.2-0.6,1.8-1.9,1.8c-1.2,0-1.8-0.4-1.8-1.3c-0.6-4.2-3.3-6.3-8.1-6.3c-5.4,0-8.1,2.6-8.1,8v16.2
			c0,2.7,0.7,4.7,2.1,6c1.4,1.4,3.4,2,6,2c2.6,0,4.6-0.7,6-2c1.4-1.3,2.1-3.3,2.1-6v-6.2h-7.6c-0.4,0-0.8-0.2-1-0.4
			c-0.3-0.3-0.4-0.7-0.4-1.1c0-0.4,0.1-0.7,0.4-1c0.3-0.3,0.6-0.4,1-0.4h10c0.9,0,1.4,0.4,1.4,1.4v7.8c0,3.9-1.1,6.7-3.2,8.5
			c-2.1,1.8-5,2.7-8.6,2.7c-3.6,0-6.5-0.9-8.6-2.7C1035.6,274.4,1034.5,271.5,1034.5,267.6"/>
		<path class="st0" d="M1065.8,277.2v-35.7c0-0.8,0.6-1.3,1.9-1.3c1.3,0,1.9,0.4,1.9,1.3v33.9h16.3c0.8,0,1.2,0.5,1.2,1.6
			c0,1.1-0.4,1.6-1.2,1.6h-18.3c-0.4,0-0.9-0.1-1.2-0.4C1066,277.9,1065.8,277.6,1065.8,277.2"/>
		<path class="st0" d="M1092.2,277.2v-35.7c0-0.8,0.6-1.3,1.9-1.3c1.2,0,1.9,0.4,1.9,1.3v35.7c0,0.5-0.2,0.8-0.6,1
			c-0.4,0.2-0.8,0.4-1.3,0.4c-0.5,0-1-0.1-1.4-0.4C1092.4,277.9,1092.2,277.6,1092.2,277.2"/>
		<path class="st0" d="M1102.3,273.3c0-0.4,0.2-0.8,0.5-1.3c0.4-0.4,0.8-0.7,1.2-0.7c0.3,0,0.7,0.3,1.1,0.7l1.6,1.5
			c0.6,0.6,1.5,1.1,2.7,1.5c1.2,0.5,2.7,0.7,4.3,0.7c2.7,0,4.8-0.6,6.2-1.8c1.5-1.3,2.2-3.1,2.2-5.4c0-1.6-0.4-2.9-1.1-4
			c-0.7-1.1-1.6-2-2.7-2.5c-1.1-0.6-2.3-1.2-3.7-1.7l-4.1-1.5c-1.4-0.5-2.6-1.1-3.7-1.7c-1.1-0.7-1.9-1.7-2.7-2.9
			c-0.7-1.3-1-2.7-1-4.4c0-1.8,0.4-3.4,1.1-4.7c0.7-1.3,1.7-2.3,3-3c1.3-0.6,2.5-1.1,3.9-1.4c1.3-0.3,2.7-0.4,4.1-0.4
			c2.3,0,4.5,0.3,6.5,0.9c2.1,0.6,3.1,1.4,3.1,2.3c0,0.4-0.2,0.8-0.5,1.3c-0.3,0.4-0.7,0.6-1.2,0.6c-0.2,0-0.7-0.2-1.3-0.5
			c-0.7-0.3-1.6-0.6-2.7-0.9c-1.2-0.3-2.5-0.5-4-0.5c-2.4,0-4.4,0.4-5.9,1.4c-1.5,0.9-2.3,2.5-2.3,4.7c0,1.5,0.5,2.8,1.4,3.8
			c0.9,1,2.1,1.8,3.5,2.2c1.4,0.4,3,1,4.6,1.6c1.7,0.7,3.1,1.3,4.5,2c1.4,0.7,2.6,1.9,3.5,3.4c0.9,1.5,1.4,3.5,1.4,5.7
			c0,3.6-1.1,6.3-3.3,8c-2.1,1.8-5.1,2.7-8.8,2.7c-3.3,0-6.1-0.6-8.3-2C1103.5,275.7,1102.3,274.5,1102.3,273.3"/>
		<path class="st0" d="M1132.7,277.2v-35.7c0-0.8,0.6-1.3,1.9-1.3c1.2,0,1.9,0.4,1.9,1.3v15.7h16.5v-15.7c0-0.8,0.6-1.3,1.9-1.3
			c1.3,0,1.9,0.4,1.9,1.3v35.7c0,0.5-0.2,0.8-0.6,1c-0.3,0.2-0.8,0.4-1.3,0.4c-0.6,0-1-0.1-1.3-0.4c-0.4-0.3-0.5-0.6-0.5-1v-17
			h-16.5v17c0,0.5-0.2,0.8-0.6,1c-0.4,0.2-0.8,0.4-1.3,0.4c-0.5,0-1-0.1-1.3-0.4C1132.9,277.9,1132.7,277.6,1132.7,277.2"/>
	</g>
	<g>
		<polygon class="st0" points="566.7,210.2 566.7,218.7 595.2,218.7 566.3,117.8 537,218.7 530.5,242.3 514.8,294.3 514.4,295.4 
			513.4,298.9 510.8,307.4 513.4,307.4 520.4,307.4 522.3,301.2 535.9,256 539.9,242.3 546.6,218.7 549.1,210.2 549.9,207.5 
			550,207.2 566.2,151.1 583.1,210.2 		"/>
		<polygon class="st0" points="647,295.2 650.7,307.4 660.3,307.4 657.1,296.6 593.3,84 591.4,77.8 584.3,77.8 550.2,77.8 
			543.1,77.8 541.2,84 476.5,296.6 473.2,307.4 482.9,307.4 485.5,298.9 485.4,298.9 486.8,294.4 486.8,294.3 550.2,86.3 
			584.3,86.3 		"/>
		<polygon class="st0" points="618.5,298.9 618.5,298.9 601.8,242.3 566.7,242.3 566.7,250.9 594.7,250.9 609.6,301.1 611.4,307.4 
			618.5,307.4 621.1,307.4 		"/>
		<path class="st0" d="M198.6,172.9v8.6c17.8-0.7,32.1-14.3,32.1-30.8v-9.7c0-16.6-15.1-30.8-33.8-30.8h-43.4v70.5v0.8v22v2.7v27.1
			h9.3v-19v-2.4v-5.8v-2.7v-22v-0.8V173v-8.5v-45.8h34.1c13.3,0,24.6,10.2,24.6,22.3v9.7C221.4,162.6,211.3,172.2,198.6,172.9"/>
		<path class="st0" d="M250.7,190c11-10.9,18.2-26.6,18.2-41.4v-8.1c0-34.6-30.6-62.7-68.1-62.7h-75.6H116v8.5v147.2h9.2V86.3h75.6
			c32.6,0,58.8,24.2,58.8,54.1v8.1c0,16.6-10.9,34.8-25,42.6c19,7.3,31.6,26,31.6,45.4v8.5c0,29.9-26,53.8-58.2,53.8h-82.8v-32.4
			H116v32.4v8.5h9.2H208c37.2,0,67.5-28,67.5-62.4v-8.5C275.5,218,265.9,200.6,250.7,190"/>
		<path class="st0" d="M153.5,275h49.6c18.4,0,32.9-13.9,32.9-30.8v-9.4c0-16.9-14.1-31.2-35.5-31.2h-1.9v8.5h1.9
			c15.2,0,26.2,9.5,26.2,22.6v9.4c0,12.3-10.6,22.3-23.6,22.3h-40.3v0h-9.3V275z"/>
		<path class="st0" d="M389.5,171.5h-6.9c-27.1,0-31.1-16.6-31.1-26.5v-6.4c0-13,11-22.9,25.6-22.9h11.2c14.6,0,25.5,10.9,25.5,25.4
			V155v8.5h9.3V149v-8c0-18.4-14.4-33.9-34.8-33.9H377c-19.4,0-34.8,13.6-34.8,31.4v6.4c0,18.4,11.8,35.1,40.4,35.1h6.9
			c44,0,64.8,24.2,64.8,55.9v8.5c0,31.8-25,57.5-61.2,57.5h-20.7c-34.5,0-61.5-25.4-61.5-57.1v-5.2v-17.3h-9.3v8.6v13.9
			c0,36.8,31.1,65.7,70.7,65.7h20.7c40.2,0,70.4-28.4,70.4-66V236C463.5,196.2,435.2,171.5,389.5,171.5"/>
		<path class="st0" d="M378.7,212.5h6.2c20.9,0,31.2,8.2,31.2,25v5.8c0,13.1-8.2,26.2-26.6,26.2h-14.4c-14.6,0-26.6-11.2-26.6-25
			v-13.6v-8.5h-9.2v8.5v8.7v4.9c0,18.4,15.8,33.5,35.8,33.5h14.4c22,0,35.8-15.4,35.8-34.8v-5.8c0-18.4-10.9-33.6-40.4-33.6h-6.2
			c-41.7,0-65.4-27.2-65.4-56.2v-10c0-30.9,28-54.4,62.1-54.4h16.1c34.5,0,59.5,25.7,59.5,57.4V155h-0.1v8.5h0.1h9.3V155v-14.2
			c0-37-30.2-66-68.7-66h-16.1c-40.1,0-71.4,27.6-71.4,62.9v10C304,179.9,329.7,212.5,378.7,212.5"/>
	</g>
	<g>
		<rect x="705.5" y="213.4" class="st0" width="452.8" height="6.2"/>
		<rect x="705.5" y="301.1" class="st0" width="452.8" height="6.3"/>
	</g>
	<g>
		<rect x="909.3" y="77" class="st1" width="6.2" height="45.9"/>
		<path class="st1" d="M726.1,117.7c4,0,7.1-3,7.1-6.7v-2c0-3.7-3-6.7-7.7-6.7h-10.2v15.4H726.1z M724.8,97.5c4,0,7.3-3,7.3-6.7
			v-2.1c0-3.6-3.3-6.7-7.3-6.7h-9.4v15.4H724.8z M709.3,77h16.3c7,0,12.7,5.2,12.7,11.7v1.8c0,3.6-2.3,7.5-5.3,9.2
			c4.1,1.6,6.8,5.6,6.8,9.8v1.8c0,6.5-5.6,11.6-12.5,11.6h-17.9V77z"/>
		<path class="st1" d="M750.5,101h15.8v-0.5c0-3.6-2.2-6.6-6.4-6.6h-3c-4.2,0-6.5,3-6.5,6.6V101z M772.2,110.1v1.9
			c0,6.5-5,11.3-11.7,11.3h-4.2c-6.7,0-11.7-4.8-11.7-11.1v-11.9c0-6.1,5.4-11,12.1-11h3.8c6.7,0,11.7,4.9,11.7,11v5.1h-21.7v6.5
			c0,3.6,2.5,6.9,6.6,6.9h2.7c4.2,0,6.4-3.3,6.4-7v-1.6H772.2z"/>
		<path class="st1" d="M775,89.7h4.5V84h6.1v5.7h16.2v4.9h-16.2v19.1c0,2.6,1.6,4.7,4.6,4.7h1.3c3.7,0,4.9-2.4,4.9-4.8v-2.3h5.7v3.3
			c0,4.8-4.1,8.7-9.4,8.7h-4c-5.4,0-9.3-3.9-9.3-8.5V94.6H775V89.7z"/>
		<path class="st1" d="M820.5,94.4c-4,0-7.2,3.4-7.4,6.8v21.7h-6.2V77h6.2v16.4c1.8-3.2,5.8-4.2,8.6-4.2h2.4c6.1,0,10.1,4,10.1,9.3
			v24.3h-6.3v-22.8c0-2.9-1.6-5.7-5.1-5.7H820.5z"/>
		<path class="st1" d="M855.6,94.4c-4.7,0-7.6,3.7-7.8,7v21.5h-6.2V89.7h6.1v3.7c2-3.3,5.9-4.2,8.7-4.2h2.4c6.2,0,10.1,4,10.1,9.3
			v24.3h-6.3V99.9c0-2.9-1.6-5.5-5-5.5H855.6z"/>
		<path class="st1" d="M888.3,118.8c2.5,0,7-1.4,7.2-6.4v-1.8h-9.9c-3.3,0-5.1,1.5-5.1,4.2c0,3,2.4,4,5,4H888.3z M905.9,122.9h-3.3
			c-3.3,0-5.3-1.2-6.3-3c-2.1,2.2-5.4,3.2-8.8,3.2h-3.7c-5.2,0-9.7-2.8-9.7-8.3c0-5.6,3.9-8.7,9.9-8.7h11.4v-5.9
			c0-3.1-2.2-5.9-5.7-5.9h-2.1c-4.1,0-6,3-6,6v1.5h-5.9v-2.4c0-5.5,4.7-10.1,11.3-10.1h3.9c6.3,0,10.8,4.4,10.8,9.8v15.9
			c0,2.5,1.1,3.3,3.3,3.3h0.9V122.9z"/>
		<path class="st1" d="M935.5,108.1h6.1v2.9c0,4,3.4,7.3,7.7,7.3h3.1c4.8,0,7.8-3.4,7.8-7.5v-1.2c0-4-2.3-7.2-8.7-7.2h-1.4
			c-9,0-14.1-5.9-14.1-12.1V88c0-6.6,6.1-11.7,13.4-11.7h3.5c7.5,0,12.9,5.5,12.9,12.4v3.1h-6v-3c0-4-3.1-7.3-7.5-7.3h-2.4
			c-4.2,0-7.6,2.9-7.6,6.8v1.4c0,4,2.6,7.6,8.7,7.6h1.5c9.5,0,14,5.2,14,12.1v1.8c0,6.9-5.4,12.4-13.2,12.4h-4.5
			c-7.4,0-13.2-5.5-13.2-12.4V108.1z"/>
		<path class="st1" d="M969,89.7h4.5V84h6.1v5.7h16.2v4.9h-16.2v19.1c0,2.6,1.6,4.7,4.6,4.7h1.3c3.7,0,4.9-2.4,4.9-4.8v-2.3h5.8v3.3
			c0,4.8-4.1,8.7-9.4,8.7h-3.9c-5.4,0-9.3-3.9-9.3-8.5V94.6H969V89.7z"/>
		<path class="st1" d="M1014.1,118.1c4,0,7.3-3.5,7.5-6.8V89.7h6.2v33.1h-5.9V119c-2,3.3-6.1,4.2-8.7,4.2h-3.1
			c-5.2,0-9.4-4.2-9.4-8.8V89.7h6.3v22.7c0,3,1.5,5.7,4.9,5.7H1014.1z"/>
		<path class="st1" d="M1048.8,118.3c4.1,0,7.2-3.7,7.2-7.3V98.7c-0.2-2.8-2.8-4.4-6.1-4.4h-3c-4.3,0-6.4,3.3-6.4,7v11
			c0,3.2,1.8,6.1,5.6,6.1H1048.8z M1062.1,122.8h-6V120c-2.1,2.6-5.6,3.3-8.2,3.3h-3.7c-5.8,0-10-4.2-10-9.3v-13.6
			c0-6.1,5-11.1,11.7-11.1h3.4c2.6,0,5.3,0.7,6.7,2.2V77h6V122.8z"/>
		<path class="st1" d="M1074.6,101h15.8v-0.5c0-3.6-2.2-6.6-6.4-6.6h-3c-4.2,0-6.4,3-6.4,6.6V101z M1096.3,110.1v1.9
			c0,6.5-5.1,11.3-11.7,11.3h-4.2c-6.7,0-11.7-4.8-11.7-11.1v-11.9c0-6.1,5.4-11,12.1-11h3.8c6.7,0,11.7,4.9,11.7,11v5.1h-21.7v6.5
			c0,3.6,2.5,6.9,6.7,6.9h2.7c4.2,0,6.4-3.3,6.4-7v-1.6H1096.3z"/>
		<path class="st1" d="M1116.5,94.4c-4.7,0-7.6,3.7-7.8,7v21.5h-6.2V89.7h6.1v3.7c2-3.3,5.9-4.2,8.7-4.2h2.4c6.2,0,10.1,4,10.1,9.3
			v24.3h-6.3V99.9c0-2.9-1.6-5.5-5-5.5H1116.5z"/>
		<path class="st1" d="M1133.9,89.7h4.5V84h6.1v5.7h16.3v4.9h-16.3v19.1c0,2.6,1.6,4.7,4.6,4.7h1.4c3.7,0,4.9-2.4,4.9-4.8v-2.3h5.7
			v3.3c0,4.8-4.1,8.7-9.4,8.7h-4c-5.4,0-9.3-3.9-9.3-8.5V94.6h-4.5V89.7z"/>
		<path class="st1" d="M716,170.4h17.2l-8.6-26.3L716,170.4z M707,183.5c0-0.2,0-0.4,0.1-0.4l14.8-44.3c0.3-1,1.2-1.5,2.7-1.5
			c1.5,0,2.4,0.5,2.8,1.5l14.8,44.4c0,0,0,0.1,0,0.2c0,0.1,0,0.1,0,0.2c0,0.5-0.3,0.9-0.9,1.3c-0.6,0.3-1.3,0.5-1.9,0.5
			c-0.9,0-1.5-0.4-1.8-1.1l-3.2-10.1h-19.6l-3.2,10.1c-0.2,0.7-0.8,1.1-1.9,1.1c-0.7,0-1.3-0.2-1.9-0.5
			C707.3,184.4,707,184,707,183.5"/>
		<path class="st1" d="M747,173.4v-7c0-3.6,1.2-6.6,3.5-8.9c2.3-2.3,5.7-3.4,10.2-3.4c2.8,0,5.2,0.5,7.1,1.4
			c1.9,0.9,2.9,1.8,2.9,2.8c0,0.5-0.2,0.9-0.7,1.4c-0.4,0.5-0.9,0.7-1.4,0.7c-0.3,0-0.7-0.2-1.3-0.6c-0.6-0.4-1.4-0.8-2.6-1.2
			c-1.1-0.4-2.4-0.6-3.9-0.6c-3,0-5.3,0.7-6.9,2.2c-1.6,1.5-2.4,3.6-2.4,6.2v7c0,2.7,0.8,4.7,2.4,6.2c1.6,1.5,3.9,2.2,7,2.2
			c1.6,0,3-0.2,4.1-0.6c1.1-0.4,2-0.8,2.5-1.2c0.6-0.4,1.1-0.6,1.4-0.6c0.6,0,1.1,0.2,1.5,0.6c0.4,0.5,0.6,0.9,0.6,1.4
			c0,1-1,2-3,2.9c-2,0.9-4.4,1.4-7.4,1.4c-4.5,0-8-1.2-10.3-3.4C748.2,180.1,747,177.1,747,173.4"/>
		<path class="st1" d="M779.6,176.8c0,1.8,0.6,3.2,1.7,4.1c1.1,0.9,2.6,1.4,4.5,1.4c2.2,0,4.3-0.8,6.3-2.3c2-1.5,3-3,3-4.6v-4.2h-3
			c-1.9,0-3.5,0.1-4.8,0.2c-1.3,0.1-2.6,0.3-3.9,0.7c-1.3,0.3-2.2,0.9-2.9,1.7C779.9,174.5,779.6,175.5,779.6,176.8 M775,177.1
			c0-3.4,1.4-5.8,4.2-7.1c2.8-1.3,6.9-2,12.3-2h3.7v-1.5c0-2.4-0.7-4.4-2.1-6.1c-1.4-1.8-3.5-2.6-6.3-2.6c-1.9,0-3.6,0.3-5.1,0.9
			c-1.5,0.6-2.3,0.9-2.4,0.9c-0.6,0-1-0.2-1.4-0.7c-0.3-0.5-0.5-1-0.5-1.5c0-0.8,1-1.6,3-2.3c2.1-0.7,4.2-1,6.5-1
			c4.4,0,7.7,1.2,9.7,3.6c2,2.4,3.1,5.4,3.1,9v17c0,0.5-0.2,0.9-0.6,1.2c-0.5,0.3-1,0.5-1.6,0.5c-0.6,0-1.2-0.1-1.6-0.5
			c-0.4-0.4-0.6-0.7-0.6-1.2v-2.9c-3.2,3.4-6.8,5-10.7,5c-2.8,0-5.1-0.8-6.9-2.2C775.9,182.1,775,180,775,177.1"/>
		<path class="st1" d="M811.7,173.4c0,2.2,0.9,4.1,2.6,5.8c1.8,1.8,3.8,2.6,6.2,2.6c2.3,0,4.3-0.8,6-2.3c1.7-1.6,2.6-2.9,2.6-4.1
			v-9.1c0-2.5-0.9-4.5-2.6-6c-1.7-1.5-3.8-2.3-6-2.3c-2.4,0-4.5,0.8-6.2,2.5c-1.7,1.7-2.6,3.6-2.6,5.7V173.4z M807.1,173.4v-7.1
			c0-3.4,1.3-6.2,3.8-8.6c2.5-2.4,5.5-3.6,9-3.6c2.1,0,4.1,0.5,5.7,1.4c1.6,1,2.9,2.2,3.7,3.6v-21.9c0-0.4,0.2-0.8,0.7-1.1
			c0.5-0.3,1.1-0.5,1.7-0.5c0.7,0,1.2,0.1,1.6,0.5c0.4,0.3,0.6,0.7,0.6,1.1v46.4c0,0.4-0.2,0.8-0.6,1.2c-0.5,0.3-1,0.5-1.6,0.5
			c-0.6,0-1.1-0.2-1.5-0.5c-0.5-0.4-0.7-0.8-0.7-1.2v-2.9c-0.8,1.4-2.1,2.6-3.9,3.6c-1.7,1-3.7,1.5-5.8,1.5c-3.3,0-6.3-1.3-8.8-3.8
			C808.4,179.5,807.1,176.6,807.1,173.4"/>
		<path class="st1" d="M846,168h14.2c1.4,0,2.3-0.1,2.8-0.4c0.5-0.3,0.7-0.9,0.7-1.8c0-2.2-0.9-4.1-2.5-5.7
			c-1.7-1.6-3.8-2.5-6.3-2.5c-2.5,0-4.6,0.8-6.3,2.3c-1.7,1.6-2.6,3.4-2.6,5.6V168z M841.4,173.4V166c0-3.2,1.3-6.1,4-8.4
			c2.6-2.4,5.9-3.6,9.6-3.6c3.6,0,6.7,1.1,9.3,3.4c2.6,2.3,4,5.1,4,8.5c0,1.2-0.2,2.2-0.5,2.9c-0.3,0.7-0.8,1.2-1.5,1.6
			c-0.7,0.3-1.4,0.5-1.9,0.6c-0.6,0.1-1.4,0.1-2.4,0.1h-16v2.4c0,2.6,1,4.6,3,6.2c2,1.6,4.6,2.3,7.8,2.3c1.6,0,3-0.2,4.2-0.6
			c1.2-0.5,2.1-0.9,2.8-1.3c0.7-0.4,1.1-0.7,1.5-0.7c0.6,0,1,0.2,1.4,0.7c0.4,0.4,0.6,0.9,0.6,1.3c0,0.9-1,1.9-3.1,2.8
			c-2,1-4.6,1.5-7.6,1.5c-4.5,0-8.2-1.1-11-3.4C842.9,180.1,841.4,177.1,841.4,173.4"/>
		<path class="st1" d="M875.1,183.6V156c0-0.4,0.2-0.8,0.7-1.1c0.4-0.3,0.9-0.5,1.6-0.5c0.6,0,1.1,0.2,1.6,0.5
			c0.4,0.3,0.6,0.7,0.6,1.1v3.1c0.8-1.5,2.1-2.7,3.8-3.6c1.6-0.9,3.5-1.4,5.7-1.4c2.3,0,4.3,0.6,6.1,1.8c1.8,1.2,3.1,2.8,4,4.8
			c1.2-2.2,2.8-3.8,4.7-4.9c1.9-1.1,4-1.7,6.1-1.7c3.2,0,6,1.1,8.4,3.3c2.4,2.2,3.5,5.1,3.5,8.9v17.3c0,0.4-0.2,0.8-0.6,1.2
			c-0.5,0.3-1,0.5-1.7,0.5c-0.6,0-1.1-0.2-1.6-0.5c-0.5-0.3-0.7-0.8-0.7-1.2v-17.3c0-2.6-0.8-4.6-2.4-6.1c-1.6-1.5-3.5-2.2-5.6-2.2
			c-2.2,0-4.1,0.8-5.8,2.3c-1.7,1.5-2.5,3.4-2.5,5.7v17.6c0,1.1-0.8,1.6-2.3,1.6c-1.5,0-2.3-0.5-2.3-1.6v-17.6
			c0-2.3-0.8-4.2-2.4-5.8c-1.6-1.5-3.5-2.3-5.7-2.3c-2.2,0-4.2,0.8-5.9,2.3c-1.6,1.5-2.5,3.5-2.5,6v17.3c0,0.4-0.2,0.8-0.7,1.2
			c-0.5,0.3-1,0.5-1.6,0.5c-0.6,0-1.2-0.2-1.6-0.5C875.4,184.4,875.1,184,875.1,183.6"/>
		<path class="st1" d="M926.4,156.1c0-0.5,0.3-1,0.9-1.4c0.6-0.4,1.3-0.6,1.9-0.6c0.9,0,1.4,0.3,1.6,0.9l9.7,24l9.2-24
			c0.3-0.6,0.8-0.9,1.6-0.9c0.6,0,1.2,0.2,1.9,0.6c0.6,0.4,0.9,0.9,0.9,1.4c0,0.3,0,0.4-0.1,0.5l-11,27.4l-1.3,3.2
			c-0.2,0.6-0.7,1.6-1.4,3.1c-0.7,1.5-1.3,2.6-1.8,3.2l-1.8,2.6c-0.8,1.1-1.6,1.9-2.3,2.4c-0.7,0.5-1.6,0.9-2.7,1.3
			c-1,0.4-2.1,0.6-3.2,0.6c-1.4,0-2.2-0.7-2.2-2c0-1.4,0.5-2,1.4-2c2.2,0,4.2-1.2,6.1-3.6c1.9-2.4,3.3-5.4,4.2-8.9l-11.5-27.3
			C926.4,156.4,926.4,156.3,926.4,156.1"/>
	</g>
</g>
</svg>
